<svg viewBox="0 0 40 40" fill="#282828" xmlns="http://www.w3.org/2000/svg">
<path d="M19.99 0C8.94 0 0 8.95 0 20C0 31.05 8.94 40 19.99 40C31.04 40 40 31.05 40 20C40 8.95 31.04 0 19.99 0ZM33.84 12H27.94C27.29 9.5 26.38 7.1 25.18 4.88C28.86 6.14 31.92 8.69 33.84 12ZM20 4.07C21.67 6.47 22.97 9.14 23.82 12H16.18C17.03 9.14 18.33 6.47 20 4.07ZM4.52 24C4.19 22.72 4 21.38 4 20C4 18.62 4.19 17.28 4.52 16H11.27C11.11 17.31 11 18.64 11 20C11 21.36 11.11 22.69 11.28 24H4.52ZM6.15 28H12.05C12.7 30.5 13.61 32.9 14.81 35.13C11.13 33.87 8.07 31.31 6.15 28ZM12.05 12H6.15C8.07 8.69 11.13 6.13 14.81 4.87C13.61 7.1 12.7 9.5 12.05 12ZM20 35.93C18.34 33.53 17.04 30.86 16.18 28H23.82C22.96 30.86 21.66 33.53 20 35.93ZM24.68 24H15.32C15.13 22.69 15 21.36 15 20C15 18.64 15.13 17.31 15.32 16H24.68C24.87 17.31 25 18.64 25 20C25 21.36 24.87 22.69 24.68 24ZM25.19 35.12C26.39 32.89 27.3 30.5 27.95 28H33.85C31.92 31.31 28.86 33.86 25.19 35.12ZM28.72 24C28.88 22.69 29 21.36 29 20C29 18.64 28.89 17.31 28.72 16H35.47C35.8 17.28 36 18.62 36 20C36 21.38 35.81 22.72 35.47 24H28.72Z"
  stroke="none"
/>
</svg>
