<svg viewBox="0 0 22 23" fill="black" xmlns="http://www.w3.org/2000/svg">
<path d="M1.30673 14.5338L12.3293 3.51131C14.1557 1.68489 17.1163 1.68489 18.9428 3.51131C20.7692 5.33773 20.7692 8.2984 18.9428 10.1248L9.0225 20.0451C7.80505 21.2625 5.83093 21.2625 4.61349 20.0451C3.39604 18.8276 3.39604 16.8535 4.61349 15.6361L14.5338 5.71581C15.1428 5.10681 16.1298 5.10737 16.7383 5.71581C17.3473 6.32481 17.3473 7.31132 16.7383 7.92032L7.92024 16.7383L9.0225 17.8406L17.8405 9.02257C19.058 7.80513 19.058 5.831 17.8405 4.61356C16.6231 3.39612 14.6489 3.39612 13.4315 4.61356L3.51124 14.5338C1.68481 16.3603 1.68481 19.3209 3.51124 21.1473C5.33766 22.9738 8.29833 22.9738 10.1247 21.1473L20.5961 10.6759C22.4986 8.23004 22.2931 4.65709 20.045 2.40905C17.797 0.161017 14.224 -0.0445588 11.7781 1.85793L0.204478 13.4316L1.30673 14.5338Z"
      stroke="none"/>
</svg>
