<svg viewBox="0 0 40 40" fill="#282828" xmlns="http://www.w3.org/2000/svg">
<path d="M34.8599 21.95C34.9399 21.31 34.9999 20.66 34.9999 20C34.9999 19.34 34.9399 18.69 34.8599 18.05L39.0899 14.74C39.4699 14.44 39.5799 13.9 39.3299 13.46L35.3299 6.53C35.0799 6.1 34.5599 5.92 34.1099 6.1L29.1299 8.11C28.0999 7.32 26.9699 6.65 25.7499 6.14L24.9999 0.84C24.9099 0.37 24.4999 0 23.9999 0H15.9999C15.4999 0 15.0899 0.37 15.0099 0.84L14.2599 6.14C13.0399 6.65 11.9099 7.31 10.8799 8.11L5.8999 6.1C5.4499 5.93 4.9299 6.1 4.6799 6.53L0.679899 13.46C0.429899 13.89 0.539899 14.43 0.919899 14.74L5.1399 18.05C5.0599 18.69 4.9999 19.34 4.9999 20C4.9999 20.66 5.0599 21.31 5.1399 21.95L0.919899 25.26C0.539899 25.56 0.429899 26.1 0.679899 26.54L4.6799 33.47C4.9299 33.9 5.4499 34.08 5.8999 33.9L10.8799 31.89C11.9099 32.68 13.0399 33.35 14.2599 33.86L15.0099 39.16C15.0899 39.63 15.4999 40 15.9999 40H23.9999C24.4999 40 24.9099 39.63 24.9899 39.16L25.7399 33.86C26.9599 33.35 28.0899 32.69 29.1199 31.89L34.0999 33.9C34.5499 34.07 35.0699 33.9 35.3199 33.47L39.3199 26.54C39.5699 26.11 39.4599 25.57 39.0799 25.26L34.8599 21.95ZM19.9999 27C16.1299 27 12.9999 23.87 12.9999 20C12.9999 16.13 16.1299 13 19.9999 13C23.8699 13 26.9999 16.13 26.9999 20C26.9999 23.87 23.8699 27 19.9999 27Z"
  stroke="none"
/>
</svg>
