<svg viewBox="0 0 15 17" fill="black" xmlns="http://www.w3.org/2000/svg">
<path
  d="M8.38063 4.07377C8.66845 3.71875 8.61069 3.2003 8.25154 2.91577C7.89251 2.63124 7.36818 2.68837 7.08046 3.04339L8.38063 4.07377ZM1.17863 11.6416L1.80964 12.1795C1.81615 12.172 1.82252 12.1645 1.82875 12.1568L1.17863 11.6416ZM0.988675 12.1007L0.157144 12.047L0.156411 12.0626L0.988675 12.1007ZM0.833153 15.4212L0.000889487 15.383C-0.00102121 15.4239 0.000145204 15.4649 0.00439984 15.5056L0.833153 15.4212ZM1.70741 16.1757L1.73465 16.9991C1.79021 16.9972 1.84544 16.99 1.89954 16.9772L1.70741 16.1757ZM5.04002 15.3948L5.2322 16.1964L5.24508 16.1932L5.04002 15.3948ZM5.4677 15.1268L6.11045 15.6511L6.11767 15.6422L5.4677 15.1268ZM12.8273 7.36913C13.1152 7.01413 13.0575 6.4957 12.6986 6.21106C12.3397 5.92643 11.8152 5.98343 11.5274 6.33841L12.8273 7.36913ZM7.08391 3.04317C6.79608 3.39809 6.85362 3.91656 7.21266 4.20122C7.57158 4.48586 8.09591 4.4289 8.38385 4.07399L7.08391 3.04317ZM9.49794 1.38378L10.1479 1.89919C10.1588 1.88569 10.1694 1.87185 10.1795 1.85769L9.49794 1.38378ZM11.3075 1.03229L11.8405 0.39914C11.814 0.377305 11.7861 0.357127 11.7571 0.338708L11.3075 1.03229ZM13.7926 3.07748L14.3822 2.49552C14.3641 2.4776 14.3452 2.46053 14.3256 2.44433L13.7926 3.07748ZM13.7826 4.87664L13.1994 4.2883C13.1758 4.31119 13.1536 4.33544 13.1328 4.36093L13.7826 4.87664ZM11.5274 6.33841C11.2393 6.69319 11.297 7.21129 11.6558 7.4961C12.0146 7.78091 12.5393 7.72391 12.8273 7.36913L11.5274 6.33841ZM8.55781 3.4365C8.4896 2.98656 8.06547 2.67646 7.61046 2.74389C7.15534 2.81131 6.84174 3.23072 6.90995 3.68066L8.55781 3.4365ZM12.2896 7.66998C12.7455 7.6088 13.0648 7.19361 13.003 6.74283C12.941 6.29199 12.5212 5.97618 12.0652 6.03744L12.2896 7.66998ZM7.08046 3.04339L0.528519 11.1264L1.82875 12.1568L8.38063 4.07377L7.08046 3.04339ZM0.547626 11.1036C0.317276 11.3678 0.180106 11.699 0.157144 12.047L1.82006 12.1543C1.81945 12.1636 1.8158 12.1725 1.80964 12.1795L0.547626 11.1036ZM0.156411 12.0626L0.000889487 15.383L1.66542 15.4593L1.82094 12.1389L0.156411 12.0626ZM0.00439984 15.5056C0.0951246 16.3754 0.850794 17.0277 1.73465 16.9991L1.68017 15.3524C1.67661 15.3525 1.67487 15.352 1.67374 15.3515C1.67215 15.351 1.67005 15.3499 1.66791 15.348C1.66575 15.3461 1.66436 15.3443 1.66357 15.3428C1.66301 15.3417 1.66227 15.3401 1.66191 15.3366L0.00439984 15.5056ZM1.89954 16.9772L5.2322 16.1964L4.84784 14.5932L1.51527 15.3741L1.89954 16.9772ZM5.24508 16.1932C5.58446 16.108 5.88761 15.9182 6.11045 15.6511L4.82495 14.6025C4.82762 14.5995 4.83106 14.5973 4.83495 14.5963L5.24508 16.1932ZM6.11767 15.6422L12.8273 7.36913L11.5274 6.33841L4.81773 14.6114L6.11767 15.6422ZM8.38385 4.07399L10.1479 1.89919L8.84797 0.86837L7.08391 3.04317L8.38385 4.07399ZM10.1795 1.85769C10.3334 1.64118 10.6326 1.58307 10.858 1.72589L11.7571 0.338708C10.7803 -0.280188 9.48383 -0.0283723 8.81642 0.909867L10.1795 1.85769ZM10.7746 1.66544L13.2596 3.71063L14.3256 2.44433L11.8405 0.39914L10.7746 1.66544ZM13.2029 3.65946C13.2872 3.74304 13.3343 3.8565 13.3337 3.9746L15 3.98365C15.0031 3.42599 14.7807 2.89022 14.3822 2.49552L13.2029 3.65946ZM13.3337 3.9746C13.3331 4.0927 13.2847 4.20563 13.1994 4.2883L14.3658 5.46498C14.7686 5.07463 14.9969 4.54131 15 3.98365L13.3337 3.9746ZM13.1328 4.36093L11.5274 6.33841L12.8273 7.36913L14.4323 5.39235L13.1328 4.36093ZM6.90995 3.68066C7.29797 6.24132 9.69468 8.0186 12.2896 7.66998L12.0652 6.03744C10.3734 6.26473 8.81087 5.10597 8.55781 3.4365L6.90995 3.68066Z"
  stroke="none"
/>
</svg>
