<svg viewBox="0 0 24 25" stroke="black" xmlns="http://www.w3.org/2000/svg">
<path d="M8.90418 23.0307C9.7293 23.759 10.813 24.2008 11.9999 24.2008C13.187 24.2008 14.2707 23.759 15.0959 23.0307M19.0204 7.81969C19.0204 5.95775 18.2808 4.17207 16.9642 2.85547C15.6477 1.53888 13.8619 0.799225 11.9999 0.799225C10.138 0.799225 8.35238 1.53888 7.03579 2.85547C5.7192 4.17207 4.97954 5.95775 4.97954 7.81969C4.97954 11.4355 4.06743 13.9111 3.04852 15.5485C2.18906 16.9298 1.75933 17.6204 1.77508 17.8131C1.79253 18.0264 1.83772 18.1077 2.00963 18.2353C2.16488 18.3504 2.86473 18.3504 4.26445 18.3504H19.7356C21.1353 18.3504 21.8352 18.3504 21.9904 18.2353C22.1623 18.1077 22.2075 18.0264 22.2249 17.8131C22.2407 17.6204 21.8109 16.9298 20.9515 15.5485C19.9326 13.9111 19.0204 11.4355 19.0204 7.81969Z"
      fill="none" stroke-width="1.6" stroke-linecap="round" stroke-linejoin="round"/>
</svg>
