<svg viewBox="0 0 25 24" fill="none" xmlns="http://www.w3.org/2000/svg">

<style>
  :root {
    --icon-grad-first-color: #BB2649;
    --icon-grad-second-color: #F75F82;
  }
</style>

<path
  d="M23.1577 0.0642639L19.3079 1.69612C19.0182 1.81893 18.8298 2.10322 18.8298 2.41799V4.31131L7.47625 15.6649L4.60892 14.7092C4.32734 14.615 4.01647 14.688 3.80661 14.8986L0.479902 18.2254C0.0685282 18.6367 0.233668 19.3398 0.786228 19.5236L3.74122 20.5088L4.72638 23.4638C4.90877 24.012 5.60993 24.1849 6.02463 23.7701L9.35143 20.4433C9.56152 20.2332 9.63479 19.9228 9.5408 19.641L8.58512 16.7736L19.9387 5.42009H21.8319C22.1467 5.42009 22.431 5.2317 22.5538 4.94196L24.1857 1.09213C24.461 0.443012 23.8027 -0.210048 23.1577 0.0642639Z"
  fill="url(#paint0_linear_360_641)" stroke="none"
/>
<path
  d="M13.0223 7.9009L16.3499 4.57339C10.7162 0.567798 3.5745 0.300331 0.549571 2.78896C0.431212 2.88613 0.335447 3.02362 0.291009 3.18355C0.212775 3.46354 0.296869 3.74352 0.48118 3.93496C0.484837 3.93875 0.487227 3.94339 0.490977 3.94714L8.73354 12.1897L9.84241 11.0809L2.65636 3.89479C5.66661 3.76175 10.0752 5.76158 13.0223 7.9009Z"
  fill="url(#paint1_linear_360_641)" stroke="none"
/>
<path
  d="M21.4845 23.6748C24.4434 19.7281 22.9536 12.5087 19.6766 7.8999L16.349 11.2274C18.4888 14.1748 20.4897 18.5843 20.3556 21.594L13.169 14.4074L12.0601 15.5162C12.1403 15.5963 20.2335 23.6907 20.3149 23.7688C20.6097 24.0523 21.0499 23.9887 20.8571 23.9887C21.3696 23.9888 21.6642 23.4351 21.4845 23.6748Z"
  fill="url(#paint2_linear_360_641)" stroke="none"
/>

<defs>
  <linearGradient id="paint0_linear_360_641" x1="12.2502" y1="0" x2="12.2502" y2="24" gradientUnits="userSpaceOnUse">
    <stop stop-color="var(--icon-grad-first-color)"/>
    <stop offset="1" stop-color="var(--icon-grad-second-color)"/>
  </linearGradient>
  <linearGradient id="paint1_linear_360_641" x1="8.30585" y1="1.18457" x2="8.30585" y2="12.1897" gradientUnits="userSpaceOnUse">
    <stop stop-color="var(--icon-grad-first-color)"/>
    <stop offset="1" stop-color="var(--icon-grad-second-color)"/>
  </linearGradient>
  <linearGradient id="paint2_linear_360_641" x1="17.5685" y1="7.8999" x2="17.5685" y2="23.9948" gradientUnits="userSpaceOnUse">
    <stop stop-color="var(--icon-grad-first-color)"/>
    <stop offset="1" stop-color="var(--icon-grad-second-color)"/>
  </linearGradient>
</defs>

</svg>
