<svg viewBox="0 0 25 24" xmlns="http://www.w3.org/2000/svg">

<style>
  :root {
    --icon-grad-first-color: #BB2649;
    --icon-grad-second-color: #F75F82;
  }
</style>

<path
  d="M20.966 1.9634L15.28 0.217399C14.0249 -0.164841 12.67 -0.0396076 11.5063 0.566199C10.3425 1.17201 9.46277 2.21006 9.056 3.4574L8.868 3.9964H5.5C4.17441 3.99799 2.90356 4.52528 1.96622 5.46262C1.02888 6.39996 0.501588 7.6708 0.5 8.9964L0.5 18.9964C0.501588 20.322 1.02888 21.5928 1.96622 22.5302C2.90356 23.4675 4.17441 23.9948 5.5 23.9964H11.5C12.2575 23.9938 13.0044 23.8181 13.6838 23.483C14.3631 23.1478 14.957 22.6619 15.42 22.0624C15.6482 22.0955 15.8784 22.1129 16.109 22.1144C17.1828 22.1152 18.2281 21.7687 19.0887 21.1265C19.9493 20.4843 20.5791 19.581 20.884 18.5514L24.3 8.1524C24.6649 6.8897 24.5202 5.53424 23.8968 4.37708C23.2735 3.21993 22.2212 2.35334 20.966 1.9634ZM11.5 21.9964H5.5C4.70435 21.9964 3.94129 21.6803 3.37868 21.1177C2.81607 20.5551 2.5 19.792 2.5 18.9964V8.9964C2.5 8.20075 2.81607 7.43769 3.37868 6.87508C3.94129 6.31247 4.70435 5.9964 5.5 5.9964H11.5C12.2956 5.9964 13.0587 6.31247 13.6213 6.87508C14.1839 7.43769 14.5 8.20075 14.5 8.9964V18.9964C14.5 19.792 14.1839 20.5551 13.6213 21.1177C13.0587 21.6803 12.2956 21.9964 11.5 21.9964ZM22.387 7.5594L18.975 17.9594C18.8054 18.5347 18.4669 19.0458 18.0033 19.4263C17.5396 19.8069 16.9723 20.0393 16.375 20.0934C16.4571 19.7335 16.499 19.3656 16.5 18.9964V8.9964C16.4984 7.6708 15.9711 6.39996 15.0338 5.46262C14.0964 4.52528 12.8256 3.99799 11.5 3.9964H10.993C11.2511 3.26897 11.7797 2.66903 12.4688 2.32131C13.1579 1.97359 13.9545 1.90486 14.693 2.1294L20.379 3.8754C21.1279 4.1065 21.7569 4.62096 22.132 5.30913C22.5071 5.9973 22.5986 6.80475 22.387 7.5594ZM12.5 12.9964C12.5 14.4464 10.956 16.3874 9.786 17.3744C9.42652 17.6785 8.97088 17.8454 8.5 17.8454C8.02912 17.8454 7.57348 17.6785 7.214 17.3744C6.044 16.3874 4.5 14.4464 4.5 12.9964C4.5 12.466 4.71071 11.9573 5.08579 11.5822C5.46086 11.2071 5.96957 10.9964 6.5 10.9964C7.03043 10.9964 7.53914 11.2071 7.91421 11.5822C8.28929 11.9573 8.5 12.466 8.5 12.9964C8.5 12.466 8.71071 11.9573 9.08579 11.5822C9.46086 11.2071 9.96957 10.9964 10.5 10.9964C11.0304 10.9964 11.5391 11.2071 11.9142 11.5822C12.2893 11.9573 12.5 12.466 12.5 12.9964Z"
  fill="url(#paint0_linear_499_323)" stroke="none"
/>

<defs>
  <linearGradient id="paint0_linear_499_323"
    x1="12.4987" y1="6.67572e-06" x2="12.4987" y2="23.9964" gradientUnits="userSpaceOnUse"
  >
    <stop stop-color="var(--icon-grad-first-color)"/>
    <stop offset="1" stop-color="var(--icon-grad-second-color)"/>
  </linearGradient>
</defs>

</svg>
