<svg viewBox="0 0 30 30" fill="none" xmlns="http://www.w3.org/2000/svg">

<style>
  :root {
    --first-color: #BB2649;
    --second-color: #F75F82;
  }
</style>

<path
  d="M27.7871 16.6922C29.1518 15.3288 30.0009 13.4312 30 11.3493C30.0009 9.26748 29.1518 7.36981 27.7871 6.00686C26.4242 4.64174 24.527 3.79272 22.4443 3.79401C20.3624 3.79272 18.4644 4.6418 17.1023 6.00686C15.7368 7.36981 14.8877 9.26748 14.8886 11.3493C14.8877 13.4312 15.7368 15.3288 17.1023 16.6922C18.2313 17.8229 19.7278 18.5975 21.3919 18.8302V21.9342H17.965V24.0403H21.3919V27.3664H23.4976V24.0403H26.9245V21.9342H23.4976V18.8302C25.1617 18.5975 26.6582 17.8229 27.7871 16.6922ZM22.4443 16.1672C21.7755 16.1668 21.1451 16.0324 20.5692 15.7891C19.7064 15.4245 18.968 14.8115 18.4482 14.042C17.9292 13.2717 17.6272 12.3519 17.6272 11.3493C17.6272 10.6802 17.7616 10.0502 18.0049 9.47467C18.369 8.61153 18.9816 7.87354 19.7516 7.3537C20.5224 6.83432 21.442 6.53227 22.4443 6.53139C23.113 6.53186 23.7434 6.66627 24.3194 6.91002C25.1821 7.27412 25.9206 7.88713 26.4404 8.65664C26.9593 9.4275 27.2614 10.3471 27.2622 11.3494C27.2614 12.0185 27.127 12.6485 26.8836 13.2241C26.5195 14.0872 25.9061 14.8256 25.137 15.3451C24.3662 15.8648 23.4473 16.1664 22.4443 16.1672Z"
  fill="url(#paint0_linear_492_155)" stroke="none"
/>
<path
  d="M8.60813 11.8538V6.66532L10.6993 8.75612L12.189 7.26726L7.55572 2.63354L2.92154 7.26726L4.41041 8.75612L6.50244 6.66491V11.8538C4.83832 12.0869 3.34184 12.8616 2.21285 13.9926C0.847383 15.3556 -0.000819718 17.2528 5.94467e-07 19.3347C-0.000819718 21.4174 0.847383 23.3146 2.21285 24.6775C3.5758 26.043 5.47301 26.8917 7.55572 26.8908C9.63756 26.8917 11.5348 26.043 12.8977 24.6775C14.2632 23.3146 15.1114 21.4174 15.1114 19.3347C15.1114 17.2529 14.2632 15.3556 12.8977 13.9926C11.7688 12.8616 10.2722 12.0869 8.60813 11.8538ZM11.9951 21.2098C11.6301 22.0729 11.0176 22.8109 10.2484 23.3308C9.47766 23.8506 8.55797 24.1527 7.55572 24.1527C6.88617 24.1527 6.25658 24.0183 5.68061 23.7749C4.81793 23.41 4.07941 22.7974 3.55963 22.0278C3.03979 21.257 2.73779 20.3378 2.73779 19.3348C2.73779 18.6661 2.87221 18.0361 3.11549 17.4605C3.48047 16.5978 4.09307 15.8594 4.86299 15.3395C5.63291 14.8202 6.5526 14.5186 7.55567 14.5177C8.22439 14.5177 8.85393 14.6521 9.43078 14.8959C10.2926 15.2604 11.0311 15.873 11.5509 16.6425C12.0707 17.4134 12.3728 18.3326 12.3728 19.3348C12.3728 20.0042 12.2384 20.6347 11.9951 21.2098Z"
  fill="url(#paint1_linear_492_155)" stroke="none"
/>


<defs>
  <linearGradient id="paint0_linear_492_155" x1="22.4443" y1="3.79401" x2="22.4443" y2="27.3664" gradientUnits="userSpaceOnUse">
    <stop stop-color="var(--first-color)"/>
    <stop offset="1" stop-color="var(--second-color)"/>
  </linearGradient>
  
  <linearGradient id="paint1_linear_492_155" x1="7.55569" y1="2.63354" x2="7.55569" y2="26.8908" gradientUnits="userSpaceOnUse">
    <stop stop-color="var(--first-color)"/>
    <stop offset="1" stop-color="var(--second-color)"/>
  </linearGradient>
</defs>

</svg>
