<svg viewBox="0 0 30 30" fill="none" xmlns="http://www.w3.org/2000/svg">

<style>
  :root {
    --first-color: #BB2649;
    --second-color: #F75F82;
  }
</style>

<path
  d="M25 15V26.75C25 27.1642 24.6642 27.5 24.25 27.5H5.75C5.33579 27.5 5 27.1642 5 26.75V15"
  fill="none"
  stroke="url(#paint0_linear_489_9)" stroke-width="1.5" stroke-linecap="round" stroke-linejoin="round"
/>
<path
  d="M26.75 8.75H3.25C2.83579 8.75 2.5 9.08579 2.5 9.5V14.25C2.5 14.6642 2.83579 15 3.25 15H26.75C27.1642 15 27.5 14.6642 27.5 14.25V9.5C27.5 9.08579 27.1642 8.75 26.75 8.75Z"
  fill="none"
  stroke="url(#paint1_linear_489_9)" stroke-width="1.5" stroke-linecap="round" stroke-linejoin="round"
/>
<path
  d="M15 27.5V8.75" stroke="url(#paint2_linear_489_9)"
  fill="none"
  stroke-width="1.5" stroke-linecap="round" stroke-linejoin="round"
/>
<path
  d="M15 8.75H9.375C8.5462 8.75 7.75134 8.42076 7.16529 7.83471C6.57924 7.24866 6.25 6.4538 6.25 5.625C6.25 4.7962 6.57924 4.00134 7.16529 3.41529C7.75134 2.82924 8.5462 2.5 9.375 2.5C13.75 2.5 15 8.75 15 8.75Z"
  fill="none"
  stroke="url(#paint3_linear_489_9)" stroke-width="1.5" stroke-linecap="round" stroke-linejoin="round"
/>
<path
  d="M15 8.75H20.625C21.4537 8.75 22.2486 8.42076 22.8347 7.83471C23.4207 7.24866 23.75 6.4538 23.75 5.625C23.75 4.7962 23.4207 4.00134 22.8347 3.41529C22.2486 2.82924 21.4537 2.5 20.625 2.5C16.25 2.5 15 8.75 15 8.75Z"
  fill="none"
  stroke="url(#paint4_linear_489_9)" stroke-width="1.5" stroke-linecap="round" stroke-linejoin="round"
/>

<defs>
<linearGradient id="paint0_linear_489_9" x1="15" y1="15" x2="15" y2="27.5" gradientUnits="userSpaceOnUse">
<stop stop-color="var(--first-color)"/>
<stop offset="1" stop-color="var(--second-color)"/>
</linearGradient>
<linearGradient id="paint1_linear_489_9" x1="15" y1="8.75" x2="15" y2="15" gradientUnits="userSpaceOnUse">
<stop stop-color="var(--first-color)"/>
<stop offset="1" stop-color="var(--second-color)"/>
</linearGradient>
<linearGradient id="paint2_linear_489_9" x1="15.5" y1="8.75" x2="15.5" y2="27.5" gradientUnits="userSpaceOnUse">
<stop stop-color="var(--first-color)"/>
<stop offset="1" stop-color="var(--second-color)"/>
</linearGradient>
<linearGradient id="paint3_linear_489_9" x1="10.625" y1="2.5" x2="10.625" y2="8.75" gradientUnits="userSpaceOnUse">
<stop stop-color="var(--first-color)"/>
<stop offset="1" stop-color="var(--second-color)"/>
</linearGradient>
<linearGradient id="paint4_linear_489_9" x1="19.375" y1="2.5" x2="19.375" y2="8.75" gradientUnits="userSpaceOnUse">
<stop stop-color="var(--first-color)"/>
<stop offset="1" stop-color="var(--second-color)"/>
</linearGradient>
</defs>

</svg>
