<svg viewBox="0 0 24 24" fill="none" xmlns="http://www.w3.org/2000/svg">


<title>info</title>

<style>
  :root {
    --icon-grad-first-color: #BB2649;
    --icon-grad-second-color: #F75F82;
  }
</style>

<defs>
  <linearGradient id="gradient_rtbvdso" gradientUnits="userSpaceOnUse"
    x1="50%" y1="10%" x2="50%" y2="85%"
  >
    <stop stop-color="var(--icon-grad-first-color)"/>
    <stop offset="90%" stop-color="var(--icon-grad-second-color)"/>
  </linearGradient>
</defs>


<path d="M12 17V11"
  stroke="url(#gradient_rtbvdso)" stroke-width="1.5" stroke-linecap="round" fill="none"
/>
<circle cx="1" cy="1" r="1" transform="matrix(1 0 0 -1 11 9)"
  fill="url(#gradient_rtbvdso)" stroke="none"
/>
<path d="M2 12C2 7.28595 2 4.92893 3.46447 3.46447C4.92893 2 7.28595 2 12 2C16.714 2 19.0711 2 20.5355 3.46447C22 4.92893 22 7.28595 22 12C22 16.714 22 19.0711 20.5355 20.5355C19.0711 22 16.714 22 12 22C7.28595 22 4.92893 22 3.46447 20.5355C2 19.0711 2 16.714 2 12Z"
  stroke="url(#gradient_rtbvdso)" stroke-width="1.5" fill="none"
/>

</svg>