<svg viewBox="0 0 30 22" xmlns="http://www.w3.org/2000/svg">

<style>
  :root {
    --first-color: #BB2649;
    --second-color: #F75F82;
  }
</style>

<path
  d="M4 21V22H6V21H4ZM14 21V22H16V21H14ZM6 21V19.9998H4V21H6ZM14 19.9994V21H16V19.9994H14ZM10 16C12.2093 16 14 17.7904 14 19.9994H16C16 16.6854 13.3135 14 10 14V16ZM6 19.9998C6 17.7906 7.7908 16 10 16V14C6.68636 14 4 16.686 4 19.9998H6ZM10 4C7.79086 4 6 5.79086 6 8H8C8 6.89544 8.89544 6 10 6V4ZM14 8C14 5.79086 12.2091 4 10 4V6C11.1046 6 12 6.89544 12 8H14ZM10 12C12.2091 12 14 10.2091 14 8H12C12 9.10456 11.1046 10 10 10V12ZM10 10C8.89544 10 8 9.10456 8 8H6C6 10.2091 7.79086 12 10 12V10ZM3 2H27V0H3V2ZM28 3V19H30V3H28ZM27 20H3V22H27V20ZM2 19V3H0V19H2ZM3 20C2.44772 20 2 19.5522 2 19H0C0 20.6568 1.34315 22 3 22V20ZM28 19C28 19.5522 27.5522 20 27 20V22C28.6568 22 30 20.6568 30 19H28ZM27 2C27.5522 2 28 2.44772 28 3H30C30 1.34314 28.6568 0 27 0V2ZM3 0C1.34315 0 0 1.34314 0 3H2C2 2.44772 2.44772 2 3 2V0ZM18 8H24V6H18V8ZM18 14H24V12H18V14Z"
  stroke="none"
  fill="url(#paint0_linear_492_140)"
/>
<defs>
<linearGradient id="paint0_linear_492_140" x1="15" y1="0" x2="15" y2="22" gradientUnits="userSpaceOnUse">
<stop stop-color="var(--first-color)"/>
<stop offset="1" stop-color="var(--second-color)"/>
</linearGradient>
</defs>
</svg>
