<svg viewBox="0 0 32 32" xmlns="http://www.w3.org/2000/svg">

<title>ruler vertical</title>

<style>
  :root {
    --icon-grad-first-color: #BB2649;
    --icon-grad-second-color: #F75F82;
  }
</style>

<defs>
  <linearGradient id="paint0_linear_492_162" x1="15.25" y1="4" x2="15.25" y2="26.5" gradientUnits="userSpaceOnUse">
    <stop stop-color="var(--icon-grad-first-color)"/>
    <stop offset="1" stop-color="var(--icon-grad-second-color)"/>
    <stop offset="1" stop-color="var(--icon-grad-second-color)"/>
  </linearGradient>
</defs>


<path
  d="m19 1c1.6568542 0 3 1.34314575 3 3v24c0 1.6568542-1.3431458 3-3 3h-6c-1.6568542 0-3-1.3431458-3-3v-24c0-1.65685425 1.3431458-3 3-3zm0 2h-6c-.5128358 0-.9355072.38604019-.9932723.88337887l-.0067277.11662113v24c0 .5128358.3860402.9355072.8833789.9932723l.1166211.0067277h6c.5128358 0 .9355072-.3860402.9932723-.8833789l.0067277-.1166211v-1h-5c-.5522847 0-1-.4477153-1-1s.4477153-1 1-1h5v-2h-3c-.5522847 0-1-.4477153-1-1s.4477153-1 1-1h3v-2h-5c-.5522847 0-1-.4477153-1-1s.4477153-1 1-1h5v-2h-3c-.5522847 0-1-.4477153-1-1s.4477153-1 1-1h3v-2h-5c-.5522847 0-1-.4477153-1-1 0-.55228475.4477153-1 1-1h5v-2h-3c-.5522847 0-1-.44771525-1-1s.4477153-1 1-1h3v-1c0-.51283584-.3860402-.93550716-.8833789-.99327227z"
  fill="url(#paint0_linear_492_162)" fill-rule="nonzero"
/>


</svg>