<svg viewBox="0 0 512 512" xmlns="http://www.w3.org/2000/svg">

<style>
  :root {
    --icon-grad-first-color: #BB2649;
    --icon-grad-second-color: #F75F82;
  }
</style>

<defs>
  <linearGradient id="paint0_linear_4839ujffbhv" x1="15.25" y1="4" x2="15.25" y2="26.5" gradientUnits="userSpaceOnUse">
    <stop stop-color="var(--icon-grad-first-color)"/>
    <stop offset="1" stop-color="var(--icon-grad-second-color)"/>
    <stop offset="1" stop-color="var(--icon-grad-second-color)"/>
  </linearGradient>
</defs>

<path fill="url(#paint0_linear_4839ujffbhv)" d="M16,240V360H360V240H16Zm312,88H48V272H328Z" />
<rect width="32" height="120" x="384" y="240" fill="url(#paint0_linear_4839ujffbhv)" />
<rect width="32" height="120" x="440" y="240" fill="url(#paint0_linear_4839ujffbhv)" />
<path fill="url(#paint0_linear_4839ujffbhv)"
  d="M385.428,173.3a31.982,31.982,0,0,1,2.32-38.418,63.745,63.745,0,0,0,3.479-78.69L385.377,48H348.8l-1.82,1.3,18.207,25.49a31.807,31.807,0,0,1-1.736,39.265,64.1,64.1,0,0,0-4.649,76.993L364.77,200h38.46Z"
  />
<path fill="url(#paint0_linear_4839ujffbhv)"
  d="M457.428,173.3a31.982,31.982,0,0,1,2.32-38.418,63.745,63.745,0,0,0,3.479-78.69L457.377,48H420.8l-1.82,1.3,18.207,25.49a31.807,31.807,0,0,1-1.736,39.265,64.1,64.1,0,0,0-4.649,76.993L436.77,200h38.46Z"
  />
  
</svg>