<svg viewBox="0 0 24 24" stroke="black" xmlns="http://www.w3.org/2000/svg">
<path d="M12.8682 4.24125C15.449 1.50491 19.7035 1.81454 21.9067 4.92903C23.8849 7.72559 23.4001 11.6831 20.8465 13.8491L12 21.3526L3.1535 13.8491C3.1535 13.8491 3.15349 13.8491 3.15349 13.8491C0.599889 11.6831 0.115117 7.7256 2.09335 4.92904C4.29649 1.81456 8.55096 1.50489 11.1318 4.24125C11.1319 4.24125 11.1319 4.24126 11.1319 4.24126L11.3634 4.48681C11.5288 4.6621 11.7591 4.76146 12 4.76146C12.241 4.76146 12.4712 4.6621 12.6366 4.48681L12.8681 4.24127C12.8681 4.24126 12.8682 4.24125 12.8682 4.24125Z"
      fill="none" stroke-width="1.75" stroke-linecap="round" stroke-linejoin="round"/>
</svg>
