<svg viewBox="0 0 16 22" fill="black" stroke="black" xmlns="http://www.w3.org/2000/svg">
<path d="M14.7282 2.20284L12.1346 0.705414C11.3944 0.278102 10.448 0.531689 10.0207 1.27181L1.87511 15.3804C1.7328 15.6269 1.66123 15.9079 1.66827 16.1924L1.73604 18.9328C1.764 20.0636 2.95629 20.7833 3.96992 20.2811L6.50255 19.0265C6.77594 18.891 7.00319 18.6778 7.15573 18.4136L15.2946 4.31667C15.7219 3.57655 15.4683 2.63015 14.7282 2.20284ZM10.8484 1.74965C11.0118 1.46662 11.3737 1.36964 11.6567 1.53305L14.2503 3.03048C14.5334 3.19389 14.6304 3.5558 14.4669 3.83883L6.3281 17.9357C6.26976 18.0368 6.18286 18.1183 6.07831 18.1701L3.54568 19.4248C3.15806 19.6168 2.70211 19.3416 2.69142 18.9092L2.62365 16.1688C2.62096 16.06 2.64833 15.9525 2.70275 15.8583L10.8484 1.74965Z"
      stroke-width="0.1"/>
<rect x="2.49304" y="15.6097" width="4.70621" height="0.855674" transform="rotate(30 2.49304 15.6097)"
      stroke="none"/>
<rect x="7" y="19.8615" width="8" height="0"/>
</svg>
