<svg width="171" height="171" viewBox="0 0 171 171" fill="none" xmlns="http://www.w3.org/2000/svg">
<g clip-path="url(#clip0)">
<path d="M85.5061 138.488H85.4604C83.5346 138.488 81.9729 140.049 81.9729 141.975C81.9729 143.902 83.5346 145.463 85.4604 145.463H85.5061C87.4319 145.463 88.9936 143.902 88.9936 141.975C88.9936 140.049 87.4319 138.488 85.5061 138.488Z" fill="#372E14"/>
<path d="M85.4605 138.488H85.4147C83.489 138.488 81.9272 140.049 81.9272 141.975C81.9272 143.902 83.489 145.463 85.4147 145.463H85.4605C87.3862 145.463 88.9479 143.902 88.9479 141.975C88.9479 140.049 87.3862 138.488 85.4605 138.488Z" fill="#372E14"/>
<path d="M3.53371 162.108H3.48795C1.5622 162.108 0.000488281 163.669 0.000488281 165.595C0.000488281 167.522 1.5622 169.083 3.48795 169.083H3.53371C5.45946 169.083 7.02117 167.522 7.02117 165.595C7.02117 163.669 5.45946 162.108 3.53371 162.108Z" fill="#372E14"/>
<path d="M167.399 162.108H167.353C165.427 162.108 163.866 163.669 163.866 165.595C163.866 167.521 165.427 169.083 167.353 169.083H167.399C169.325 169.083 170.886 167.521 170.886 165.595C170.886 163.669 169.325 162.108 167.399 162.108Z" fill="#372E14"/>
<path d="M98.1622 68.9928C96.013 68.9928 94.2639 70.7416 94.2639 72.8911C94.2639 75.0403 96.013 76.789 98.1622 76.789C100.311 76.789 102.06 75.0403 102.06 72.8911C102.06 70.7412 100.311 68.9928 98.1622 68.9928Z" fill="#372E14"/>
<path d="M72.7246 68.9928C70.5754 68.9928 68.8267 70.7416 68.8267 72.8911C68.8267 75.0403 70.5754 76.789 72.7246 76.789C74.8738 76.789 76.6229 75.0403 76.6229 72.8911C76.6229 70.7412 74.8738 68.9928 72.7246 68.9928Z" fill="#372E14"/>
<path d="M88.866 85.4239H82.0501C80.1243 85.4239 78.5626 86.9852 78.5626 88.9113C78.5626 92.7134 81.656 95.8068 85.4581 95.8068C89.2601 95.8068 92.3532 92.7137 92.3535 88.9113C92.3535 86.9852 90.7918 85.4239 88.866 85.4239Z" fill="#372E14"/>
<path d="M26.269 146.912L18.1312 138.775L20.8438 136.062C22.2058 134.7 22.2058 132.492 20.8438 131.13C19.4815 129.768 17.2742 129.768 15.9115 131.13L5.55433 141.487C4.19234 142.849 4.19234 145.058 5.55433 146.419C6.23532 147.1 7.12773 147.441 8.02047 147.441C8.91321 147.441 9.80528 147.1 10.4866 146.419L13.1989 143.707L21.3368 151.844C22.0178 152.525 22.9102 152.866 23.8029 152.866C24.6953 152.866 25.5877 152.525 26.2687 151.844C27.6314 150.482 27.6314 148.274 26.269 146.912Z" fill="#372E14"/>
<path d="M169.979 42.759L159.622 32.4015C158.26 31.0395 156.053 31.0395 154.69 32.4015C153.328 33.7635 153.328 35.9715 154.69 37.3334L157.402 40.0464L149.264 48.1839C147.902 49.5459 147.902 51.7542 149.264 53.1159C149.945 53.7969 150.838 54.1372 151.731 54.1372C152.623 54.1372 153.515 53.7965 154.197 53.1159L162.335 44.9783L165.047 47.691C165.728 48.372 166.62 48.7123 167.513 48.7123C168.406 48.7123 169.298 48.3716 169.979 47.691C171.341 46.329 171.341 44.1207 169.979 42.759Z" fill="#372E14"/>
<path d="M163.231 93.7538H132.17C130.244 93.7538 128.683 95.3151 128.683 97.2412V116.079C128.683 118.005 130.244 119.567 132.17 119.567H140.028V162.108H136.722V138.527C136.722 131.729 132.619 125.273 126.746 122.825L104.301 113.474C103.503 113.141 102.988 112.368 102.988 111.503V106.072L112.104 100.846C112.167 100.809 112.23 100.771 112.291 100.73C116.855 97.7158 119.852 92.3554 120.308 86.3904C120.315 86.3022 120.318 86.2134 120.318 86.1245V83.2292C124.847 81.756 128.13 77.4944 128.13 72.4806C128.13 67.4668 124.846 63.2045 120.318 61.7317V59.2281H124.628C127.25 59.2281 129.382 57.0956 129.382 54.4742V47.3804C129.382 45.0879 127.751 43.1692 125.589 42.7236C124.316 33.7919 120.121 25.5258 113.581 19.1801C108.894 14.6329 103.22 11.2873 97.0369 9.40533V6.82998C97.0369 4.12137 94.9044 1.91774 92.2823 1.91774H78.6013C75.9796 1.91774 73.8467 4.12137 73.8467 6.82998V9.20595C67.3998 11.0452 61.4926 14.4592 56.6278 19.1801C50.038 25.5739 45.8284 33.9164 44.5907 42.927C42.7882 43.6033 41.502 45.3441 41.502 47.3804V54.4742C41.502 57.0956 43.6345 59.2281 46.2559 59.2281H50.5673V61.7317C46.0385 63.2049 42.7558 67.4665 42.7558 72.4803C42.7558 77.4941 46.0385 81.756 50.5673 83.2289V86.1242C50.5673 86.2127 50.5707 86.3016 50.5774 86.3901C51.0353 92.3794 54.0114 97.7399 58.5386 100.73C58.601 100.771 58.6645 100.81 58.7296 100.847L67.8978 106.088V111.502C67.8978 112.367 67.3821 113.141 66.5839 113.473L44.1391 122.825C38.2654 125.273 34.163 131.73 34.163 138.527V162.108H14.8163C12.8906 162.108 11.3289 163.669 11.3289 165.595C11.3289 167.521 12.8906 169.083 14.8163 169.083H156.071C157.996 169.083 159.558 167.521 159.558 165.595C159.558 163.669 157.996 162.108 156.071 162.108H155.373V119.567H163.231C165.157 119.567 166.718 118.005 166.718 116.079V97.2412C166.718 95.3151 165.156 93.7538 163.231 93.7538ZM48.4786 52.2525V49.5292C49.9896 49.2196 51.1538 47.9308 51.2557 46.335C51.7924 37.9326 55.4255 30.0663 61.487 24.1851C66.0943 19.7148 71.8231 16.6578 78.0549 15.3449C79.6684 15.0049 80.8233 13.5811 80.8233 11.9326V8.89234H90.063V12.0816C90.063 13.7064 91.1849 15.1158 92.7683 15.4802C98.7583 16.8589 104.276 19.8691 108.724 24.1855C114.785 30.0663 118.419 37.9326 118.955 46.3353C119.072 48.1619 120.58 49.5863 122.408 49.6004V52.2529L48.4786 52.2525ZM62.2982 94.8522C59.6334 93.0477 57.8642 89.7479 57.5433 85.9836V80.2918C57.5433 78.3658 55.9816 76.8044 54.0558 76.8044C51.6715 76.8044 49.7317 74.8643 49.7317 72.4803C49.7317 70.0963 51.6718 68.1562 54.0558 68.1562C55.9816 68.1562 57.5433 66.5948 57.5433 64.6687V59.2278H113.343V64.6687C113.343 66.5948 114.904 68.1562 116.83 68.1562C119.214 68.1562 121.154 70.0963 121.154 72.4803C121.154 74.8643 119.214 76.8044 116.83 76.8044C114.904 76.8044 113.343 78.3658 113.343 80.2918V85.9829C113.026 89.6708 111.192 93.0507 108.53 94.8532L89.8058 105.59C89.7424 105.627 89.6799 105.665 89.6188 105.705C87.004 107.432 83.883 107.432 81.2682 105.705C81.2057 105.664 81.1423 105.625 81.0772 105.588L62.2982 94.8522ZM96.02 111.714C93.5184 115.024 89.6515 116.973 85.4604 116.973C81.2485 116.973 77.3683 115.009 74.868 111.672C74.8691 111.616 74.8744 111.56 74.8744 111.502V110.076L77.5246 111.591C79.9727 113.18 82.708 113.975 85.444 113.975C88.1807 113.975 90.917 113.18 93.3654 111.589L96.0129 110.071V111.502C96.0123 111.573 96.0186 111.643 96.02 111.714ZM48.6676 162.108H41.1396V138.527C41.1396 134.597 43.5834 130.614 46.8237 129.264L48.6676 128.495V162.108ZM55.6426 162.108V125.589L62.0945 122.901V141.975C62.0945 143.901 63.6562 145.463 65.5819 145.463H74.1326C76.0584 145.463 77.6201 143.901 77.6201 141.975C77.6201 140.049 76.0584 138.488 74.1326 138.488H69.0694V119.994L69.2685 119.911C70.1375 119.549 70.927 119.062 71.6224 118.48C75.3219 121.964 80.2242 123.948 85.46 123.948C90.6845 123.948 95.5818 121.969 99.2806 118.496C99.9723 119.072 100.756 119.552 101.618 119.911L101.851 120.008V138.487H96.7881C94.8624 138.487 93.3007 140.049 93.3007 141.975C93.3007 143.901 94.8624 145.462 96.7881 145.462H105.339C107.265 145.462 108.826 143.901 108.826 141.975V122.914L115.278 125.603V162.107H55.6426V162.108ZM129.747 162.108H122.253V128.509L124.063 129.264C127.303 130.614 129.747 134.596 129.747 138.527L129.747 162.108ZM148.398 162.108H147.003V119.567H148.398V162.108ZM159.743 112.592H135.658V100.728H159.743V112.592Z" fill="#372E14"/>
<path d="M48.4786 52.2525V49.5292C49.9896 49.2196 51.1538 47.9308 51.2557 46.335C51.7924 37.9326 55.4255 30.0663 61.487 24.1851C66.0943 19.7148 71.8231 16.6578 78.0549 15.3449C79.6684 15.0049 80.8233 13.5811 80.8233 11.9326V8.89234H90.063V12.0816C90.063 13.7064 91.1849 15.1158 92.7683 15.4802C98.7583 16.8589 104.276 19.8691 108.724 24.1855C114.785 30.0663 118.419 37.9326 118.955 46.3353C119.072 48.1619 120.58 49.5863 122.408 49.6004V52.2529L48.4786 52.2525Z" fill="#EABF4B"/>
<path d="M159.743 112.592H135.658V100.728H159.743V112.592Z" fill="#C8A84C"/>
<path d="M38.6542 99.5661L32.1736 91.2913L34.9209 82.754C35.2392 81.7647 35.0999 80.685 34.5405 79.8089L29.8834 72.5154L31.9454 66.1777C32.2557 65.2235 32.1405 64.1821 31.6285 63.3194L27.5729 56.4834L29.2175 49.5523C29.4406 48.6131 29.2642 47.6235 28.7305 46.8193L24.2611 40.0828L27.4898 33.5547C27.9089 32.7071 27.9657 31.7255 27.6477 30.8351L24.53 22.1108L25.8372 14.1659C26.0069 13.1329 25.7039 12.0782 25.0119 11.2933L21.117 6.87641C20.455 6.12561 19.5019 5.6951 18.5009 5.6951H3.53373C1.60798 5.6951 0.0462646 7.25648 0.0462646 9.18257V116.015C0.0462646 117.941 1.60798 119.503 3.53373 119.503H35.9085C37.8343 119.503 39.396 117.941 39.396 116.015V101.717C39.396 100.937 39.1348 100.18 38.6542 99.5661ZM7.02119 12.67H16.9265L18.6859 14.6659L17.5013 21.869C17.4054 22.4528 17.4595 23.0516 17.6583 23.609L20.582 31.7896L17.1189 38.7916C16.5678 39.9061 16.6516 41.2297 17.339 42.2657L22.0826 49.415L20.4621 56.2456C20.2533 57.1257 20.3943 58.0522 20.8558 58.8303L24.8252 65.5211L22.7415 71.9252C22.4189 72.9175 22.5575 74.0016 23.1186 74.881L27.779 82.1802L26.0884 87.4334H7.02119V12.67ZM32.421 112.528H7.02119V94.4074H25.754L32.421 102.92V112.528Z" fill="#372E14"/>
<path d="M32.421 112.528H7.02119V94.4074H25.754L32.421 102.92V112.528Z" fill="#D5BF80"/>
<path d="M7.02119 12.67H16.9265L18.6859 14.6659L17.5013 21.869C17.4054 22.4528 17.4595 23.0516 17.6583 23.609L20.582 31.7896L17.1189 38.7916C16.5678 39.9061 16.6516 41.2297 17.339 42.2657L22.0826 49.415L20.4621 56.2456C20.2533 57.1257 20.3943 58.0522 20.8558 58.8303L24.8252 65.5211L22.7415 71.9252C22.4189 72.9175 22.5575 74.0016 23.1186 74.881L27.779 82.1802L26.0884 87.4334H7.02119V12.67Z" fill="#FFEDBA"/>
<path d="M20.7679 101.029H12.7466C10.8209 101.029 9.25916 102.59 9.25916 104.516C9.25916 106.442 10.8209 108.004 12.7466 108.004H20.7679C22.6937 108.004 24.2554 106.442 24.2554 104.516C24.2554 102.59 22.6937 101.029 20.7679 101.029Z" fill="#372E14"/>
<path d="M80.9626 23.8071C80.5936 21.9164 78.761 20.6813 76.8727 21.051C72.5349 21.896 68.5421 23.8689 65.3248 26.7558C61.0315 30.6087 58.4568 35.7851 58.0734 41.3316C57.9408 43.2533 59.3909 44.9186 61.3127 45.0508C61.3942 45.0565 61.4757 45.0592 61.5561 45.0592C63.373 45.0592 64.9047 43.6518 65.0326 41.8118C65.2898 38.0852 67.0482 34.5817 69.9846 31.9466C72.263 29.9016 75.1062 28.5009 78.2069 27.897C80.097 27.529 81.3314 25.6974 80.9626 23.8071Z" fill="#372E14"/>
</g>
<defs>
<clipPath id="clip0">
<rect width="171" height="171" fill="white" transform="translate(0.000488281)"/>
</clipPath>
</defs>
</svg>
