<svg viewBox="0 0 24 24" fill="black" stroke="black" xmlns="http://www.w3.org/2000/svg">
<rect x="2.75" y="2.75" width="18.5" height="18.5" rx="4.25" fill="none" stroke-width="1.5"/>
<path fill-rule="evenodd" clip-rule="evenodd" d="M17.096 11.0939C17.222 11.2199 17.4374 11.1306 17.4374 10.9525V7.06257C17.4374 6.78643 17.2136 6.56257 16.9374 6.56257H13.0475C12.8694 6.56257 12.7801 6.778 12.9061 6.90399L17.096 11.0939ZM18.5 6.56257C18.5 5.97573 18.0243 5.5 17.4374 5.5H12.5647C11.6181 5.5 11.144 6.64454 11.8133 7.31392L16.6861 12.1866C17.3555 12.856 18.5 12.3819 18.5 11.4353V6.56257Z"
  stroke="none"/>
<path fill-rule="evenodd" clip-rule="evenodd" d="M6.90399 12.9061C6.778 12.7801 6.56257 12.8694 6.56257 13.0475V16.9374C6.56257 17.2136 6.78643 17.4374 7.06257 17.4374H10.9525C11.1306 17.4374 11.2199 17.222 11.0939 17.096L6.90399 12.9061ZM5.5 17.4374C5.5 18.0243 5.97573 18.5 6.56257 18.5H11.4353C12.3819 18.5 12.856 17.3555 12.1867 16.6861L7.31392 11.8134C6.64454 11.144 5.5 11.6181 5.5 12.5647V17.4374Z"
  stroke="none"/>
</svg>
