<?xml version="1.0" ?>

<!-- Uploaded to: SVG Repo, www.svgrepo.com, Generator: SVG Repo Mixer Tools -->
<svg
  stroke="#212121" fill="#212121"
  viewBox="1 1 22 22" version="1.1"
  xmlns="http://www.w3.org/2000/svg"
>


<rect stroke="none" fill-opacity="0.01" fill-rule="nonzero" height="24" width="24" x="0" y="0"/>

<path d="M12,22 C14.7614,22 17.2614,20.8807 19.07105,19.07105 C20.8807,17.2614 22,14.7614 22,12 C22,9.2386 20.8807,6.7386 19.07105,4.92893 C17.2614,3.11929 14.7614,2 12,2 C9.2386,2 6.7386,3.11929 4.92893,4.92893 C3.11929,6.7386 2,9.2386 2,12 C2,14.7614 3.11929,17.2614 4.92893,19.07105 C6.7386,20.8807 9.2386,22 12,22 Z"
  fill="none" stroke-linejoin="round" stroke-width="1.5"/>

<path d="M12,14.31245 L12,12.31245 C13.65685,12.31245 15,10.9693 15,9.31245 C15,7.6556 13.65685,6.31245 12,6.31245 C10.34315,6.31245 9,7.6556 9,9.31245"
  fill="none" stroke-linecap="round" stroke-linejoin="round" stroke-width="1.5"/>

<path d="M12,18.81245 C12.69035,18.81245 13.25,18.2528 13.25,17.56245 C13.25,16.8721 12.69035,16.31245 12,16.31245 C11.30965,16.31245 10.75,16.8721 10.75,17.56245 C10.75,18.2528 11.30965,18.81245 12,18.81245 Z"
  stroke="none" fill-rule="evenodd"/>



</svg>