<svg viewBox="0 0 24 24" stroke="#292D32" xmlns="http://www.w3.org/2000/svg">
<path d="M12.126 12.819C12.0525 12.8085 11.958 12.8085 11.874 12.819C10.026 12.756 8.55597 11.244 8.55597 9.38543C8.55597 7.48494 10.089 5.94144 12 5.94144C13.9005 5.94144 15.444 7.48494 15.444 9.38543C15.4335 11.244 13.974 12.756 12.126 12.819Z"
      stroke-width="1.75" stroke-linecap="round" stroke-linejoin="round" fill="none"/>
<path d="M19.077 19.749C17.208 21.4605 14.73 22.5 12 22.5C9.27003 22.5 6.79203 21.4605 4.92303 19.749C5.02803 18.762 5.65803 17.796 6.78153 17.04C9.65853 15.129 14.3625 15.129 17.2185 17.04C18.342 17.796 18.972 18.762 19.077 19.749Z"
      stroke-width="1.75" stroke-linecap="round" stroke-linejoin="round" fill="none"/>
<path d="M12 22.5C17.7989 22.5 22.5 17.7989 22.5 12C22.5 6.201 17.7989 1.5 12 1.5C6.201 1.5 1.5 6.201 1.5 12C1.5 17.7989 6.201 22.5 12 22.5Z"
      stroke-width="1.75" stroke-linecap="round" stroke-linejoin="round" fill="none"/>
</svg>
